<?xml version="1.0" encoding="UTF-8" standalone="no"?>
<svg
   width="24"
   height="24"
   viewBox="0 0 24 24"
   fill="none"
   stroke="currentColor"
   stroke-width="2"
   stroke-linecap="round"
   stroke-linejoin="round"
   class="icon icon-tabler icons-tabler-outline icon-tabler-sunset-2"
   version="1.1"
   id="svg10"
   xmlns="http://www.w3.org/2000/svg"
   xmlns:svg="http://www.w3.org/2000/svg">
  <defs
     id="defs10" />
  <path
     id="circle10"
     style="clip-rule:evenodd;fill:#000000;fill-rule:evenodd;stroke-width:0;stroke-dasharray:none;shape-rendering:geometricPrecision"
     d="M 4.5,0 C 2.0266759,7.850659e-5 6.1448994e-5,2.0266816 0,4.5 A 0.99996498,0.99996498 0 0 0 0,4.50195 C 0.00243967,5.6240999 0.4253448,6.7059833 1.1835938,7.5332 V 7.50195 a 0.99996498,0.99996498 0 0 0 0.027344,0.064453 l 2.019531,2.0195345 C 2.4871844,10.13431 2.0000001,11.014775 2,12 2,12.817614 2.3343469,13.563859 2.8730469,14.107422 1.733064,15.025951 1.0000002,16.43115 1,18 c 3e-7,2.749578 2.2504219,5 5,5 2.7495781,0 5,-2.250422 5,-5 0,-0.236148 -0.01869,-0.467638 -0.05078,-0.695312 l 5.447265,5.447265 a 0.99996498,0.99996498 0 0 0 0.04102,0.01758 h -0.01953 C 17.249953,23.556355 18.350972,23.996616 19.496094,24 A 0.99996498,0.99996498 0 0 0 19.5,24 c 2.473324,-7.9e-5 4.499938,-2.026682 4.5,-4.5 -1.37e-4,-1.26814 -0.53589,-2.477693 -1.474609,-3.330078 l -0.0039,-0.0039 -1.751953,-1.751954 C 21.512816,13.86569 22,12.985225 22,12 22,11.182386 21.665653,10.436141 21.126953,9.8925781 22.266936,8.974049 23,7.5688498 23,6 23,3.2504219 20.749578,1.0000003 18,1 c -2.749578,3e-7 -5,2.2504219 -5,5 0,0.2361479 0.01869,0.4676378 0.05078,0.6953125 L 7.8339844,1.4785156 C 6.9814025,0.53724614 5.7699953,1.462012e-4 4.5,0 Z m 0,2 c 0.7064379,8.13e-5 1.3792682,0.2986858 1.8535156,0.8222656 a 0.99996498,0.99996498 0 0 0 0.033203,0.035156 l 9.8515624,9.8515624 2.052735,2.052735 2.83789,2.839843 a 0.99996498,0.99996498 0 0 0 0.04883,0.04492 0.99996498,0.99996498 0 0 0 0,0.002 C 21.700457,18.122528 21.999924,18.794191 22,19.5 c -3.5e-5,1.39196 -1.106336,2.498912 -2.498047,2.5 -0.63606,-0.0024 -1.246818,-0.246517 -1.708984,-0.683594 a 0.99996498,0.99996498 0 0 0 -0.0039,0 L 2.6601562,6.1875 2.65625,6.1816406 C 2.2346583,5.7217023 2.0013565,5.1219665 2,4.4980469 2.0010783,3.1063556 3.1080195,2.0000442 4.5,2 Z M 18,3 c 1.668498,2e-7 3,1.3315021 3,3 0,1.6684979 -1.331502,2.9999998 -3,3 -1.668498,-2e-7 -3,-1.3315021 -3,-3 0,-1.6684979 1.331502,-2.9999998 3,-3 z M 5,11 a 1,1 0 0 1 1,1 1,1 0 0 1 -0.050781,0.304688 l 0.00586,0.0059 C 5.8287622,12.716954 5.4556239,13 5,13 4.4356696,13 4,12.56433 4,12 4,11.544376 4.2830461,11.171238 4.6894531,11.044922 l 0.00586,0.0059 A 1,1 0 0 1 5,11 Z m 14,0 c 0.56433,0 1,0.43567 1,1 0,0.455624 -0.283046,0.828762 -0.689453,0.955078 l -0.0059,-0.0059 A 1,1 0 0 1 19,13 1,1 0 0 1 18,12 1,1 0 0 1 18.05078,11.695312 l -0.0059,-0.0059 C 18.171238,11.283046 18.544376,11 19,11 Z M 6,15 c 1.6684979,0 2.9999998,1.331502 3,3 -2e-7,1.668498 -1.3315021,3 -3,3 -1.6684979,0 -2.9999998,-1.331502 -3,-3 2e-7,-1.668498 1.3315021,-3 3,-3 z" />
</svg>
